<?xml version="1.0" encoding="utf-8"?>
<!-- Generator: Adobe Illustrator 18.1.1, SVG Export Plug-In . SVG Version: 6.00 Build 0)  -->
<svg version="1.1" id="Layer_1" xmlns="http://www.w3.org/2000/svg" xmlns:xlink="http://www.w3.org/1999/xlink" x="0px" y="0px"
	 width="28.6px" height="18.9px" viewBox="0 0 28.6 18.9" enable-background="new 0 0 28.6 18.9" xml:space="preserve">
<path fill="#FFFFFF" d="M1,12.6c-1.3,1.3-1.3,3.4,0,4.6L1.7,18c1.3,1.3,3.4,1.3,4.6,0l5.7-5.7c1.3-1.3,3.4-1.3,4.6,0l5.7,5.7
	c1.3,1.3,3.4,1.3,4.6,0l0.7-0.7c1.3-1.3,1.3-3.4,0-4.6L17,1.9c0,0-0.6-0.6-1.3-1.3c-0.7-0.7-1.9-0.7-2.7,0l-1.3,1.3L1,12.6z"/>
</svg>
