<?xml version="1.0" encoding="utf-8"?>
<!-- Generator: Adobe Illustrator 18.1.1, SVG Export Plug-In . SVG Version: 6.00 Build 0)  -->
<svg version="1.1" id="Layer_1" xmlns="http://www.w3.org/2000/svg" xmlns:xlink="http://www.w3.org/1999/xlink" x="0px" y="0px"
	 width="372.3px" height="280px" viewBox="0 0 372.3 280" enable-background="new 0 0 372.3 280" xml:space="preserve">
<g>
	<g>
		<g>
			<path fill="#E4EDF1" d="M106,108.9c-6.9-14.5-21.6-24.6-38.7-24.6c-21.1,0-38.7,15.3-42.2,35.5c-0.2,0-0.4,0-0.7,0
				C10.9,119.8,0,131.1,0,144.6c0,13.5,10.9,26.1,24.5,26.1h73.4c24.5,0,36.7-14.1,36.7-31C134.6,123.5,122,109.9,106,108.9z"/>
		</g>
	</g>
</g>
<g>
	<g>
		<g>
			<path fill="#E4EDF1" d="M194.6,54.8c-10.3-21.8-32.5-37-58.2-37c-31.8,0-58.2,23.1-63.4,53.4c-0.3,0-0.7,0-1,0
				c-20.3,0-36.8,17-36.8,37.3c0,20.3,16.5,39.1,36.8,39.1h110.5c36.8,0,55.2-21.1,55.2-46.5C237.7,76.8,218.7,56.4,194.6,54.8z"/>
		</g>
	</g>
</g>
<g>
	<g>
		<g>
			<path fill="#E4EDF1" d="M332.9,34.6c-9.4-20-29.8-33.9-53.4-33.9c-29.1,0-53.3,21.2-58.1,49c-0.3,0-0.6,0-1,0
				c-18.6,0-33.7,15.5-33.7,34.2c0,18.6,15.1,35.9,33.7,35.9h101.2c33.8,0,50.6-19.3,50.6-42.6C372.3,54.7,354.9,36,332.9,34.6z"/>
		</g>
	</g>
</g>
<g>
	<g>
		<g>
			<path fill="#E4EDF1" d="M144.8,107.2c-6-12.7-18.9-21.5-33.8-21.5c-18.5,0-33.8,13.4-36.8,31.1c-0.2,0-0.4,0-0.6,0
				c-11.8,0-21.4,9.9-21.4,21.7c0,11.8,9.6,22.7,21.4,22.7h64.2c21.4,0,32.1-12.2,32.1-27C169.8,120,158.8,108.1,144.8,107.2z"/>
		</g>
	</g>
</g>
<g>
	<g>
		<g>
			<g>
				<path fill="#E4EDF1" d="M209.4,45.4c-1.7-0.3-3.3-0.5-5-0.6l-0.5-0.1l-0.2-0.4c-0.7-1.5-1.5-3-2.3-4.5l1.5-0.8
					c0.7,1.3,1.5,2.7,2.1,4.1c1.5,0.1,3.1,0.3,4.7,0.6L209.4,45.4z"/>
			</g>
			<g>
				<path fill="#E4EDF1" d="M67.5,48.4l-1.6-0.6c1.3-3.3,2.9-6.5,4.7-9.6L72,39C70.2,42,68.7,45.2,67.5,48.4z M195.6,31.1
					c-2.1-2.8-4.4-5.4-6.9-7.9l1.2-1.2c2.5,2.5,4.9,5.2,7.1,8.1L195.6,31.1z M77.8,30.4l-1.4-1c2.2-2.8,4.6-5.5,7.2-8l1.2,1.2
					C82.3,25,80,27.6,77.8,30.4z M180.8,16.4c-2.8-2.1-5.7-4-8.8-5.7l0.8-1.5c3.1,1.7,6.1,3.7,9,5.8L180.8,16.4z M92.8,15.8l-1-1.4
					c2.8-2.1,5.9-4,9.1-5.7l0.8,1.5C98.6,11.9,95.6,13.8,92.8,15.8z M162.5,6.4c-3.3-1.2-6.6-2.2-10-3l0.3-1.7c3.5,0.8,7,1.8,10.3,3
					L162.5,6.4z M111.3,6.1l-0.6-1.6c3.4-1.2,6.8-2.2,10.3-2.9l0.3,1.7C117.9,3.9,114.5,4.9,111.3,6.1z M142.2,1.9
					c-1.9-0.1-3.9-0.2-5.7-0.2c-1.6,0-3.2,0-4.7,0.2l-0.1-1.7c1.6-0.1,3.2-0.2,4.8-0.2c0,0,0,0,0,0c2,0,3.9,0.1,5.8,0.2L142.2,1.9z"
					/>
			</g>
			<g>
				<path fill="#E4EDF1" d="M57.4,64.2l-0.2-1.7c1.3-0.1,2.7-0.2,4-0.2l0,0c0.2,0,0.3,0,0.5,0c0.2-1.4,0.5-2.9,0.9-4.3l1.7,0.4
					c-0.4,1.6-0.7,3.3-1,5l-0.1,0.7l-0.8,0c-0.2,0-0.4,0-0.6,0C60.3,64,58.8,64.1,57.4,64.2z"/>
			</g>
			<g>
				<path fill="#E4EDF1" d="M61.1,153.3c-0.8,0-1.6,0-2.4-0.1l0.1-1.7c0.8,0,1.5,0.1,2.3,0.1h7.8v1.7H61.1
					C61.2,153.3,61.1,153.3,61.1,153.3z M189.8,153.3h-10.1v-1.7h10.1V153.3z M169.7,153.3h-10.1v-1.7h10.1V153.3z M149.5,153.3h-10
					v-1.7h10V153.3z M129.4,153.3h-10.1v-1.7h10.1V153.3z M109.2,153.3h-10v-1.7h10V153.3z M89.1,153.3H79v-1.7h10.1V153.3z
					 M200,152.9l-0.1-1.7c3.4-0.3,6.7-0.8,9.9-1.5l0.3,1.7C206.8,152,203.5,152.5,200,152.9z M48.7,151.3c-3.2-1.1-6.4-2.6-9.3-4.4
					l0.9-1.4c2.8,1.8,5.8,3.2,8.9,4.2L48.7,151.3z M219.9,148.5l-0.6-1.6c3.2-1.1,6.2-2.5,9-4.1l0.8,1.5
					C226.2,145.9,223.1,147.4,219.9,148.5z M31.4,140.4c-2.4-2.4-4.5-5.1-6.4-8l1.4-1c1.8,2.8,3.8,5.4,6.2,7.7L31.4,140.4z
					 M237.5,138.5l-1.1-1.3c2.5-2.1,4.9-4.5,6.9-7.1l1.4,1.1C242.5,133.8,240.1,136.2,237.5,138.5z M20.4,123.3
					c-1.2-3.2-2.1-6.6-2.6-9.9l1.7-0.3c0.5,3.2,1.3,6.5,2.5,9.6L20.4,123.3z M250.1,122.5l-1.5-0.8c1.4-2.9,2.6-6,3.4-9.2l1.7,0.4
					C252.7,116.2,251.6,119.5,250.1,122.5z M19.2,103.3l-1.7-0.1c0.3-3.4,1-6.8,2-10l1.6,0.5C20.1,96.8,19.5,100,19.2,103.3z
					 M255.3,102.8l-1.7-0.1c0.1-1.5,0.1-3,0.1-4.5c0-1.8-0.1-3.6-0.3-5.4l1.7-0.2c0.2,1.8,0.3,3.7,0.3,5.6
					C255.5,99.7,255.5,101.3,255.3,102.8z M25.2,84.7l-1.4-0.9c1.8-2.9,3.9-5.7,6.2-8.1l1.3,1.2C29,79.2,26.9,81.8,25.2,84.7z
					 M251.6,83.1c-0.9-3.2-2.2-6.3-3.7-9.2l1.5-0.8c1.5,3,2.8,6.2,3.8,9.5L251.6,83.1z M38.9,70.6l-0.9-1.4c2.9-1.8,6-3.3,9.3-4.5
					l0.5,1.6C44.6,67.4,41.7,68.8,38.9,70.6z M242.7,65.5c-2.1-2.6-4.3-5.1-6.8-7.3l1.1-1.3c2.5,2.3,4.9,4.8,6.9,7.5L242.7,65.5z
					 M228,52.3c-2.8-1.7-5.8-3.2-8.9-4.3l0.6-1.6c3.2,1.2,6.3,2.7,9.2,4.5L228,52.3z"/>
			</g>
		</g>
	</g>
</g>
<g>
	<g>
		<g>
			<path fill="#E4EDF1" d="M300.3,78.1c-7.3-15.5-23.1-26.3-41.4-26.3c-22.6,0-41.4,16.4-45.1,38c-0.3,0-0.5,0-0.7,0
				c-14.5,0-26.2,12.1-26.2,26.5c0,14.5,11.7,27.9,26.2,27.9h78.6c26.2,0,39.3-15,39.3-33.1C330.9,93.7,317.3,79.2,300.3,78.1z"/>
		</g>
	</g>
</g>
<g>
	<path fill="#A67E53" d="M212.2,275.8c0,2.3-1.9,4.2-4.3,4.2h-36.8c-2.4,0-4.3-1.9-4.3-4.2v-25.5c0-2.3,1.9-4.3,4.3-4.3H208
		c2.3,0,4.3,1.9,4.3,4.3V275.8z"/>
</g>
<g>
	<rect x="173" y="229.1" fill="#31465E" width="0.8" height="17"/>
</g>
<g>
	<rect x="205.3" y="229.1" fill="#31465E" width="0.8" height="17"/>
</g>
<g>
	<g>
		<g>
			<path fill="#306480" d="M189.5,76.3c-135.8,0-16.9,152.8-16.9,152.8h4.9C150.6,188.8,95.2,89.8,189.5,76.3z"/>
		</g>
		<g>
			<path fill="#F5F2E4" d="M189.5,76.3c-94.3,13.5-38.9,112.5-12,152.8h3.5C161.8,188.8,122.2,89.8,189.5,76.3z"/>
		</g>
		<g>
			<path fill="#F5F2E4" d="M189.5,76.3c-40.4,13.5-16.6,112.5-5.1,152.8h5.1V76.3z"/>
		</g>
		<g>
			<path fill="#306480" d="M189.5,76.3c-67.4,13.5-27.8,112.5-8.6,152.8h3.4C172.9,188.8,149.1,89.8,189.5,76.3z"/>
		</g>
	</g>
	<g>
		<g>
			<path fill="#F5F2E4" d="M189.5,76.3c135.9,0,17,152.8,17,152.8h-5C228.5,188.8,283.9,89.8,189.5,76.3z"/>
		</g>
		<g>
			<path fill="#306480" d="M189.5,76.3c94.4,13.5,38.9,112.5,12,152.8h-3.4C217.4,188.8,257,89.8,189.5,76.3z"/>
		</g>
		<g>
			<path fill="#306480" d="M189.5,76.3c40.5,13.5,16.7,112.5,5.2,152.8h-5.2V76.3z"/>
		</g>
		<g>
			<path fill="#F5F2E4" d="M189.5,76.3c67.4,13.5,27.8,112.5,8.6,152.8h-3.4C206.2,188.8,230,89.8,189.5,76.3z"/>
		</g>
	</g>
</g>
<path fill="#E6E7E8" d="M198.2,229.1h3.4h5c0,0,37.7-48.4,46.4-90.8c-21,2.9-42.8,9.3-64.2,19.4c-16.4,7.8-31.2,17.1-44.3,27.5
	c13.3,24.7,28.1,43.9,28.1,43.9h4.9h3.5h3.4h5.1h5.2H198.2z"/>
<g>
	<g>
		<g>
			<path fill="#FFFFFF" d="M255.9,140.7c-3.8-8-11.9-13.5-21.3-13.5c-11.7,0-21.3,8.4-23.2,19.5c-0.1,0-0.2,0-0.4,0
				c-7.4,0-13.5,6.2-13.5,13.7c0,7.4,6.1,14.3,13.5,14.3h40.5c13.5,0,20.2-7.7,20.2-17.1C271.6,148.8,264.7,141.3,255.9,140.7z"/>
		</g>
	</g>
</g>
<g>
</g>
<g>
</g>
<g>
</g>
<g>
</g>
<g>
</g>
<g>
</g>
</svg>
