<?xml version="1.0" encoding="utf-8"?>
<!-- Generator: Adobe Illustrator 18.1.1, SVG Export Plug-In . SVG Version: 6.00 Build 0)  -->
<svg version="1.1" id="Layer_1" xmlns="http://www.w3.org/2000/svg" xmlns:xlink="http://www.w3.org/1999/xlink" x="0px" y="0px"
	 width="16px" height="20px" viewBox="0 0 16 20" enable-background="new 0 0 16 20" xml:space="preserve">
<linearGradient id="SVGID_1_" gradientUnits="userSpaceOnUse" x1="0" y1="10.002" x2="16" y2="10.002">
	<stop  offset="0.3659" style="stop-color:#DBDBDB"/>
	<stop  offset="0.6634" style="stop-color:#E5E5E5"/>
</linearGradient>
<path fill="url(#SVGID_1_)" d="M14.4,1.2h-0.8h-1.5l-0.8-0.9C11.1,0.1,10.8,0,10.6,0H5.4C5.2,0,4.9,0.1,4.7,0.3L3.9,1.2H2.4H1.6
	C0.7,1.2,0,1.9,0,2.8v15.6C0,19.3,0.7,20,1.6,20h12.8c0.9,0,1.6-0.7,1.6-1.6V2.8C16,1.9,15.3,1.2,14.4,1.2z M14,17.6
	c0,0.2-0.2,0.4-0.4,0.4H2.4C2.2,18,2,17.8,2,17.6v-14c0-0.2,0.2-0.4,0.4-0.4h1.5l0.8,0.9c0.2,0.2,0.5,0.3,0.7,0.3h5.2
	c0.2,0,0.5-0.1,0.7-0.3l0.8-0.9h1.5l0,0c0.2,0,0.4,0.2,0.4,0.4V17.6z"/>
</svg>
