<?xml version="1.0" encoding="utf-8"?>
<!-- Generator: Adobe Illustrator 18.1.1, SVG Export Plug-In . SVG Version: 6.00 Build 0)  -->
<svg version="1.1" id="Layer_1" xmlns="http://www.w3.org/2000/svg" xmlns:xlink="http://www.w3.org/1999/xlink" x="0px" y="0px"
	 width="26px" height="12px" viewBox="0 0 26 12" enable-background="new 0 0 26 12" xml:space="preserve">
<linearGradient id="SVGID_1_" gradientUnits="userSpaceOnUse" x1="0" y1="6.0146" x2="26" y2="6.0146">
	<stop  offset="0.3659" style="stop-color:#DBDBDB"/>
	<stop  offset="0.6634" style="stop-color:#E5E5E5"/>
</linearGradient>
<path fill="url(#SVGID_1_)" d="M24.9,4.6L24.9,4.6l-13,0C11.2,1.9,8.8,0,6,0C2.7,0,0,2.7,0,6c0,3.3,2.7,6,6,6c2.9,0,5.4-2.1,5.9-4.9
	h6.2v4.4h2.6V7.1h2.7v4.4H26V4.6H24.9z M6,9.5C4.1,9.5,2.6,7.9,2.6,6c0-1.9,1.5-3.4,3.4-3.4c1.9,0,3.4,1.5,3.4,3.4
	C9.5,7.9,7.9,9.5,6,9.5z"/>
</svg>
