<?xml version="1.0" encoding="utf-8"?>
<!-- Generator: Adobe Illustrator 18.1.1, SVG Export Plug-In . SVG Version: 6.00 Build 0)  -->
<svg version="1.1" id="Layer_1" xmlns="http://www.w3.org/2000/svg" xmlns:xlink="http://www.w3.org/1999/xlink" x="0px" y="0px"
	 width="80px" height="80px" viewBox="0 0 80 80" enable-background="new 0 0 80 80" xml:space="preserve">
<path fill="#FFFFFF" d="M2.6,25.1c-1-2-1.2-4.6-0.3-7c0.8-2.4,2.4-4.3,4.3-5.2c-0.4-2.4,0.3-4.8,2-6.7c2-2.3,7.4-6,20.4-4.2
	c5.9,0.8,9.2,1.7,11.9,2.4c1.7,0.4,3,0.8,4.5,1c1.2,0.2,2.5,0.2,4,0.2l0.1,0c0,0.1,0,0.1,0.1,0.2c4.4,14.3,5.5,23.4,4.3,35.8
	c0,0,0,0.1,0,0.1c-1.3,0.2-2.5,0.8-3.5,1.7c-0.4,0.3-0.7,0.7-0.9,0.9c-0.5,0.7-0.9,1.6-1.4,2.5c-0.9,1.7-2,3.6-3.5,5.5
	c-1.1,1.3-2.2,2.3-3.3,3.2c-1.1,0.9-2.1,1.8-3.2,3.1c-3.7,4.4-6.3,8.3-8,11.8l-0.3,5.2c-0.1,1.9-1,3-1.7,3.6c-1,0.8-2.3,1.1-3.8,0.9
	c-2.7-0.4-6-2.8-7.3-7.3c-1.9-6.5,0.1-10.3,2.1-14.4c1-2,2.1-4.1,2.9-6.8l-6.1-0.8c-2.3,0.3-4.4,0.3-6.3,0c-4.8-0.7-6.8-2.9-7.7-4.6
	c-1.1-2.2-0.9-4.9,0.5-7.9c-1.5-1.5-2.3-3.6-2.4-6C-0.1,29.5,0.9,26.9,2.6,25.1z M52.7,4.1c0.1-0.2,0.3-0.4,0.6-0.5l13.9-3.4
	c3.3-0.8,6.7,1,7.8,4.2c3.9,11.3,5.5,23.3,4.9,33.7c-0.1,2.4-2.1,4.3-4.5,4.4l-17.3,0.3c-0.3,0-0.5-0.1-0.7-0.3
	c-0.2-0.2-0.3-0.5-0.2-0.7c1.2-12.2,0.4-21.5-4.4-37C52.6,4.5,52.6,4.3,52.7,4.1z M59.1,11.4c1.8,0.2,3.4-1,3.6-2.7
	c0.3-1.8-1-3.4-2.7-3.6c-1.8-0.3-3.4,1-3.6,2.7C56.1,9.5,57.3,11.2,59.1,11.4z"/>
</svg>
