<?xml version="1.0" encoding="utf-8"?>
<!-- Generator: Adobe Illustrator 18.1.1, SVG Export Plug-In . SVG Version: 6.00 Build 0)  -->
<svg version="1.1" id="Layer_1" xmlns="http://www.w3.org/2000/svg" xmlns:xlink="http://www.w3.org/1999/xlink" x="0px" y="0px"
	 width="80px" height="80px" viewBox="0 0 80 80" enable-background="new 0 0 80 80" xml:space="preserve">
<path fill="#FFFFFF" d="M77.4,54.9c1,2,1.2,4.6,0.3,7c-0.8,2.4-2.4,4.3-4.3,5.2c0.4,2.4-0.3,4.8-2,6.7c-2,2.3-7.4,6-20.4,4.2
	c-5.9-0.8-9.2-1.7-11.9-2.4c-1.7-0.4-3-0.8-4.5-1c-1.2-0.2-2.5-0.2-4-0.2l-0.1,0c0-0.1,0-0.1-0.1-0.2c-4.4-14.3-5.5-23.4-4.3-35.8
	c0,0,0-0.1,0-0.1c1.3-0.2,2.5-0.8,3.5-1.7c0.4-0.3,0.7-0.7,0.9-0.9c0.5-0.7,0.9-1.6,1.4-2.5c0.9-1.7,2-3.6,3.5-5.5
	c1.1-1.3,2.2-2.3,3.3-3.2c1.1-0.9,2.1-1.8,3.2-3.1c3.7-4.4,6.3-8.3,8-11.8l0.3-5.2c0.1-1.9,1-3,1.7-3.6c1-0.8,2.3-1.1,3.8-0.9
	c2.7,0.4,6,2.8,7.3,7.3c1.9,6.5-0.1,10.3-2.1,14.4c-1,2-2.1,4.1-2.9,6.8l6.1,0.8c2.3-0.3,4.4-0.3,6.3,0c4.8,0.7,6.8,2.9,7.7,4.6
	c1.1,2.2,0.9,4.9-0.5,7.9c1.5,1.5,2.3,3.6,2.4,6C80.1,50.5,79.1,53.1,77.4,54.9z M27.3,75.9c-0.1,0.2-0.3,0.4-0.6,0.5l-13.9,3.4
	c-3.3,0.8-6.7-1-7.8-4.2C1.1,64.3-0.5,52.3,0.1,41.9c0.1-2.4,2.1-4.3,4.5-4.4l17.3-0.3c0.3,0,0.5,0.1,0.7,0.3
	c0.2,0.2,0.3,0.5,0.2,0.7c-1.2,12.2-0.4,21.5,4.4,37C27.4,75.5,27.4,75.7,27.3,75.9z M20.9,68.6c-1.8-0.2-3.4,1-3.6,2.7
	c-0.3,1.8,1,3.4,2.7,3.6c1.8,0.3,3.4-1,3.6-2.7C23.9,70.5,22.7,68.8,20.9,68.6z"/>
</svg>
