<?xml version="1.0" encoding="utf-8"?>
<!-- Generator: Adobe Illustrator 18.1.1, SVG Export Plug-In . SVG Version: 6.00 Build 0)  -->
<svg version="1.1" id="Layer_1" xmlns="http://www.w3.org/2000/svg" xmlns:xlink="http://www.w3.org/1999/xlink" x="0px" y="0px"
	 width="166.6px" height="144.7px" viewBox="0 0 166.6 144.7" enable-background="new 0 0 166.6 144.7" xml:space="preserve">
<g>
	<path fill="#FFFFFF" d="M51.2,110.9c-0.3-0.4-1-0.4-1.5,0l-0.8,0.7l-3.6-4.5c8.3-9.3,9-23.5,0.9-33.5c-9-11.2-25.3-13-36.5-4
		c-11.2,9-13,25.3-4,36.5c8.3,10.4,23,12.6,34,5.7l3.5,4.4l-0.8,0.6c-0.5,0.4-0.6,1.1-0.3,1.5l21,26.1c0.3,0.4,1,0.4,1.5,0l7.3-5.8
		c0.5-0.4,0.6-1.1,0.3-1.5L51.2,110.9z M37.4,104.1c-7.9,6.3-19.4,5.1-25.7-2.8c-6.3-7.9-5.1-19.4,2.8-25.7
		c7.9-6.3,19.4-5.1,25.7,2.8C46.5,86.2,45.3,97.8,37.4,104.1z"/>
	<path fill="#FFFFFF" d="M24.1,74.6c-0.9,0.1-1.7,0.2-2.6,0.5c-2.1,0.5-4,1.5-5.6,2.8c-6.5,5.3-7.6,14.8-2.3,21.4
		c1,1.2,2.1,2.3,3.4,3.2c0.2,0.2,0.5,0.2,0.7,0.1c0.2,0,0.3-0.1,0.5-0.3c0.3-0.3,0.3-0.9,0-1.2c-0.2-0.2-0.4-0.4-0.5-0.6
		c-2.6-3.2-3.7-7.2-3.3-11.3c0.4-4.1,2.5-7.8,5.7-10.3c1.3-1.1,2.9-1.9,4.5-2.5c0.4-0.2,0.7-0.6,0.6-1C25,74.9,24.6,74.6,24.1,74.6z
		"/>
	<path fill="#FFFFFF" d="M158.8,0H129c-4.2,0-7.6,3.4-7.6,7.6c-0.2,4.2-4.4,4.1-4.4,4.1H50c-4.2,0-9.6,1.1-11.1,7.6l-1.3,7.4H16.5
		c-3.9,0-7.1,2.9-7.1,6.6l4.7,24.1c3.4-1,6.9-1.6,10.4-1.6c14.2,0,27,8.4,32.8,21.3c4.3,9.8,4,20.5-0.2,29.6h90.7c0,0,0,0,0,0
		c0,0,0,0,0,0c1.2,0,1.5-1.7,1.9-3.7l16.6-95.4C167.4,0.7,164.3,0,158.8,0z M151.9,22.3l-11,61.2l-9.6-50.3
		c-0.9-4.6-6.5-6.7-11.6-6.6H41l0.7-4.4c0.3-2,2.2-3.6,4.2-3.6h103C151,18.7,152.3,20.3,151.9,22.3z"/>
</g>
</svg>
