<?xml version="1.0" encoding="utf-8"?>
<!-- Generator: Adobe Illustrator 18.1.1, SVG Export Plug-In . SVG Version: 6.00 Build 0)  -->
<svg version="1.1" id="Layer_1" xmlns="http://www.w3.org/2000/svg" xmlns:xlink="http://www.w3.org/1999/xlink" x="0px" y="0px"
	 width="39.4px" height="24.4px" viewBox="0 0 39.4 24.4" enable-background="new 0 0 39.4 24.4" xml:space="preserve">
<g>
	<path fill="#FFFFFF" d="M37.5,24.4H1.9c-1,0-1.9-0.8-1.9-1.9s0.8-1.9,1.9-1.9h35.6c1,0,1.9,0.8,1.9,1.9S38.5,24.4,37.5,24.4z"/>
	<path fill="#FFFFFF" d="M37.5,14.1H1.9c-1,0-1.9-0.8-1.9-1.9s0.8-1.9,1.9-1.9h35.6c1,0,1.9,0.8,1.9,1.9S38.5,14.1,37.5,14.1z"/>
	<path fill="#FFFFFF" d="M37.5,3.8H1.9C0.8,3.8,0,2.9,0,1.9S0.8,0,1.9,0h35.6c1,0,1.9,0.8,1.9,1.9S38.5,3.8,37.5,3.8z"/>
</g>
</svg>
