<?xml version="1.0" encoding="utf-8"?>
<!-- Generator: Adobe Illustrator 18.1.1, SVG Export Plug-In . SVG Version: 6.00 Build 0)  -->
<svg version="1.1" id="Layer_1" xmlns="http://www.w3.org/2000/svg" xmlns:xlink="http://www.w3.org/1999/xlink" x="0px" y="0px"
	 width="19.8px" height="22.1px" viewBox="0 0 19.8 22.1" enable-background="new 0 0 19.8 22.1" xml:space="preserve">
<g>
	<linearGradient id="SVGID_1_" gradientUnits="userSpaceOnUse" x1="-1.818989e-12" y1="11.0379" x2="19.7738" y2="11.0379">
		<stop  offset="0.3659" style="stop-color:#DBDBDB"/>
		<stop  offset="0.6634" style="stop-color:#E5E5E5"/>
	</linearGradient>
	<path fill="url(#SVGID_1_)" d="M14,12.9c-0.1-0.1-0.3-0.1-0.4,0L13.4,13l-1-1.2c2.3-2.5,2.5-6.4,0.3-9.2c-2.5-3.1-6.9-3.5-10-1.1
		c-3.1,2.5-3.5,6.9-1.1,10c2.3,2.8,6.3,3.5,9.3,1.6l1,1.2l-0.2,0.2c-0.1,0.1-0.2,0.3-0.1,0.4l5.7,7.1c0.1,0.1,0.3,0.1,0.4,0l2-1.6
		c0.1-0.1,0.2-0.3,0.1-0.4L14,12.9z M10.2,11c-2.2,1.7-5.3,1.4-7-0.8C1.5,8.1,1.8,4.9,4,3.2C6.1,1.5,9.3,1.8,11,4
		C12.7,6.1,12.4,9.3,10.2,11z"/>
	<linearGradient id="SVGID_2_" gradientUnits="userSpaceOnUse" x1="2.7868" y1="6.7603" x2="6.8563" y2="6.7603">
		<stop  offset="0.3659" style="stop-color:#DBDBDB"/>
		<stop  offset="0.6634" style="stop-color:#E5E5E5"/>
	</linearGradient>
	<path fill="url(#SVGID_2_)" d="M6.6,2.9C6.3,3,6.1,3,5.9,3.1C5.3,3.2,4.8,3.5,4.3,3.8C2.6,5.3,2.3,7.9,3.7,9.7
		C4,10,4.3,10.3,4.6,10.5c0.1,0,0.1,0.1,0.2,0c0,0,0.1,0,0.1-0.1C5,10.4,5,10.3,5,10.2c0-0.1-0.1-0.1-0.1-0.2c-0.7-0.9-1-2-0.9-3.1
		C4,5.8,4.6,4.8,5.5,4.1c0.4-0.3,0.8-0.5,1.2-0.7c0.1,0,0.2-0.2,0.2-0.3C6.8,3,6.7,2.9,6.6,2.9z"/>
</g>
</svg>
