<?xml version="1.0" encoding="utf-8"?>
<!-- Generator: Adobe Illustrator 18.1.1, SVG Export Plug-In . SVG Version: 6.00 Build 0)  -->
<svg version="1.1" id="Layer_1" xmlns="http://www.w3.org/2000/svg" xmlns:xlink="http://www.w3.org/1999/xlink" x="0px" y="0px"
	 width="80px" height="80px" viewBox="0 0 80 80" enable-background="new 0 0 80 80" xml:space="preserve">
<g>
	<path fill="#FFFFFF" d="M40,0C17.9,0,0,17.9,0,40c0,22.1,17.9,40,40,40c22.1,0,40-17.9,40-40C80,17.9,62.1,0,40,0z M40,75.3
		C20.6,75.3,4.7,59.4,4.7,40c0-3.7,0.6-7.2,1.6-10.5c2.5,1.7,7.7-1.1,11.7-6.4c1-1.3,1.8-2.6,2.4-3.9c4.8,2.1,11.8,3.4,19.6,3.4
		c7.8,0,14.8-1.3,19.6-3.4c0.6,1.3,1.4,2.6,2.4,3.9c4,5.3,9.2,8.1,11.7,6.4c1,3.3,1.6,6.9,1.6,10.6C75.3,59.4,59.4,75.3,40,75.3z"/>
	<ellipse fill="#FFFFFF" cx="29.6" cy="37.2" rx="5.8" ry="5.3"/>
	<ellipse fill="#FFFFFF" cx="50.4" cy="37.2" rx="5.8" ry="5.3"/>
	<path fill="#FFFFFF" d="M53.4,59.6c-1-1.3-2.3-2.3-3.7-3.2c-2.8-1.7-6.2-2.5-9.4-2.5c-1.6,0-3.2,0.2-4.8,0.6
		c-1.6,0.4-3.1,1-4.5,1.8c-1.4,0.8-2.7,1.9-3.7,3.2c-0.5,0.6-1,1.3-1.3,2c-0.3,0.7-0.6,1.5-0.7,2.3c1.2-0.9,2.5-1.6,3.7-2.2
		c1.2-0.6,2.5-1,3.7-1.3c2.5-0.6,5.1-0.9,7.7-0.9c2.6,0,5.1,0.2,7.6,0.9c1.2,0.3,2.5,0.8,3.7,1.4c1.3,0.6,2.5,1.3,3.8,2.1
		c-0.1-0.8-0.4-1.5-0.8-2.2C54.4,60.9,53.9,60.2,53.4,59.6z"/>
	<path fill="#FFFFFF" d="M55.7,28c-0.8-0.8-1.7-1.5-2.6-2c-0.5-0.3-1-0.6-1.5-0.8c-0.5-0.2-1-0.5-1.6-0.7l-0.6,3.3
		c0.4,0,0.9,0.1,1.3,0.1c0.5,0.1,0.9,0.2,1.4,0.3c0.9,0.3,1.8,0.6,2.7,1.1c0.8,0.5,1.6,1,2.3,1.8c0.7,0.7,1.2,1.6,1.6,2.5
		c-0.1-1-0.4-2.1-0.9-3C57.2,29.6,56.5,28.7,55.7,28z"/>
	<path fill="#FFFFFF" d="M27.9,28.3c0.5-0.1,0.9-0.2,1.4-0.3c0.4-0.1,1-0.1,1.3-0.1L30,24.5c-0.6,0.2-1.1,0.4-1.6,0.7
		c-0.5,0.2-1,0.5-1.5,0.8c-1,0.6-1.9,1.3-2.6,2c-0.8,0.8-1.5,1.7-2,2.6c-0.5,1-0.8,2-0.9,3c0.4-1,0.9-1.8,1.6-2.5
		c0.7-0.7,1.5-1.3,2.3-1.8C26.1,28.9,27,28.5,27.9,28.3z"/>
</g>
</svg>
