<?xml version="1.0" encoding="utf-8"?>
<!-- Generator: Adobe Illustrator 18.1.1, SVG Export Plug-In . SVG Version: 6.00 Build 0)  -->
<svg version="1.1" id="Layer_1" xmlns="http://www.w3.org/2000/svg" xmlns:xlink="http://www.w3.org/1999/xlink" x="0px" y="0px"
	 width="26px" height="40px" viewBox="0 0 26 40" enable-background="new 0 0 26 40" xml:space="preserve">
<g>
	<g>
		<path fill="#FFFFFF" d="M22.3,15H5.1C2.5,15,0,17.7,0,20v15.3C0,37.6,2.5,40,5.1,40h17.3c2.6,0,3.7-2.4,3.7-4.7V20
			C26,17.7,24.9,15,22.3,15z M15,27.5v3c0,0.9-0.7,1.6-1.5,1.6c-0.8,0-1.5-0.7-1.5-1.6v-3c-1-0.5-1.1-1.3-1.1-2.3
			c0-1.5,1.3-2.8,2.8-2.8c1.5,0,2.6,1.2,2.6,2.8C16.3,26.1,16,27,15,27.5z"/>
		<path fill="#FFFFFF" d="M20.6,11.6h3.7v-0.8c0-6-4.8-10.8-10.7-10.8C7.7,0,3,4.9,3,10.8v7.7h3.6v-7.5c0-3.9,3.1-7.1,7-7.1
			c3.9,0,7,3.2,7,7.1V11.6z"/>
	</g>
</g>
</svg>
