<?xml version="1.0" encoding="utf-8"?>
<!-- Generator: Adobe Illustrator 18.1.1, SVG Export Plug-In . SVG Version: 6.00 Build 0)  -->
<svg version="1.1" id="Layer_1" xmlns="http://www.w3.org/2000/svg" xmlns:xlink="http://www.w3.org/1999/xlink" x="0px" y="0px"
	 width="22px" height="22px" viewBox="0 0 22 22" enable-background="new 0 0 22 22" xml:space="preserve">
<linearGradient id="SVGID_1_" gradientUnits="userSpaceOnUse" x1="0" y1="11" x2="21.9864" y2="11">
	<stop  offset="0.3659" style="stop-color:#DBDBDB"/>
	<stop  offset="0.6634" style="stop-color:#E5E5E5"/>
</linearGradient>
<path fill="url(#SVGID_1_)" d="M3.7,18.9c-1.9,0-3,0.2-3.7,0.3v-3.8h0.7c0.4,0,0.7-0.3,0.7-0.7c0-0.4-0.3-0.7-0.6-0.7
	c0.3,0,0.6-0.3,0.6-0.7c0-0.4-0.3-0.7-0.6-0.7c0.3,0,0.6-0.3,0.6-0.7c0-0.4-0.3-0.7-0.7-0.7H0V7.5c0.5-0.1,1.7-0.4,3.8-0.4
	c4.4,0,6.1,2.2,6.4,2.7V22C9.1,20.8,6.9,18.9,3.7,18.9z M21.2,11.2H22V7.5c-0.6-0.1-2.1-0.4-4.3-0.4c-4.4,0-6.1,2.4-6.4,2.9v12
	c1.1-1.2,3.3-3.1,6.5-3.1c2,0,3.4,0.2,4.1,0.4v-3.8h-0.8c-0.4,0-0.7-0.3-0.7-0.7c0-0.4,0.3-0.7,0.6-0.7c-0.3,0-0.6-0.3-0.6-0.7
	c0-0.4,0.3-0.7,0.6-0.7c-0.3,0-0.6-0.3-0.6-0.7C20.6,11.5,20.9,11.2,21.2,11.2z M10.8,8.9c0.5-0.7,2-2.3,5.2-2.7
	C16,5.7,16,5.3,16,5.3c0-0.3-0.1-0.5-0.4-0.7C15.5,1.7,13.9,0,10.8,0C7.8,0,6.2,1.7,6,4.6C5.8,4.8,5.6,5,5.6,5.3c0,0,0,0.5,0.1,1
	C8.8,6.7,10.2,8.2,10.8,8.9z"/>
</svg>
