<?xml version="1.0" encoding="utf-8"?>
<!-- Generator: Adobe Illustrator 18.1.1, SVG Export Plug-In . SVG Version: 6.00 Build 0)  -->
<svg version="1.1" id="Layer_1" xmlns="http://www.w3.org/2000/svg" xmlns:xlink="http://www.w3.org/1999/xlink" x="0px" y="0px"
	 width="12.4px" height="22.1px" viewBox="0 0 12.4 22.1" enable-background="new 0 0 12.4 22.1" xml:space="preserve">
<path fill="#FFFFFF" d="M8.3,22.1h2.1V21H8.3V22.1z M7.3,18.9V21h1v-2.1H7.3z M6.2,16.8v-2.1h-1v2.1H6.2l0,2.1h1v-2.1H6.2z M11.4,21
	v-2.1h-1V21H11.4z M10.4,18.9v-2.1h-1v2.1H10.4z M9.3,16.8v-2.1h-1v2.1H9.3z M12.4,12.6v-1.1h-1v-1.1h-1v1.1H8.3h-1v1.1v2.1h1v-2.1
	H12.4z M10.4,10.5V9.5h-1v1.1H10.4z M9.3,9.5v-1h-1v1H9.3z M8.3,8.4V7.4h-1v1.1H8.3z M7.3,7.4V6.3h-1v1.1H7.3z M6.2,6.3v-1h-1v1H6.2
	z M5.2,5.3V4.2h-1v1.1H5.2z M4.2,4.2V3.2h-1v1.1H4.2z M3.1,3.2V2.1h-1v1.1H3.1z M1.1,2.1h1V1.1h-1V0H0v17.9h1.1v-1.1h1v-1h-1V2.1z
	 M2.1,15.8h1v-1h-1V15.8z M5.2,12.6h-1v1.1h-1v1h1h1v-1V12.6z"/>
</svg>
