<?xml version="1.0" encoding="utf-8"?>
<!-- Generator: Adobe Illustrator 18.1.1, SVG Export Plug-In . SVG Version: 6.00 Build 0)  -->
<svg version="1.1" id="Layer_1" xmlns="http://www.w3.org/2000/svg" xmlns:xlink="http://www.w3.org/1999/xlink" x="0px" y="0px"
	 width="20px" height="19.6px" viewBox="0 0 20 19.6" enable-background="new 0 0 20 19.6" xml:space="preserve">
<g>
	<linearGradient id="SVGID_1_" gradientUnits="userSpaceOnUse" x1="0" y1="9.7978" x2="20" y2="9.7978">
		<stop  offset="0.3659" style="stop-color:#DBDBDB"/>
		<stop  offset="0.6634" style="stop-color:#E5E5E5"/>
	</linearGradient>
	<path fill="url(#SVGID_1_)" d="M14.7,0H2.8C1.3,0,0,1.3,0,2.8v13.9c0,1.6,1.3,2.8,2.8,2.8h14.3c1.6,0,2.8-1.3,2.8-2.8V5.7
		C20,4.1,16.3,0,14.7,0z M3.9,2.2c0-0.5,0.4-0.9,0.9-0.9h9c0.5,0,0.9,0.4,0.9,0.9v4.4c0,0.5-0.4,0.9-0.9,0.9h-9
		C4.4,7.5,3.9,7,3.9,6.5V2.2z M17.2,17.2c0,0.5-0.4,0.9-0.9,0.9H3.4c-0.5,0-0.9-0.4-0.9-0.9v-7c0-0.5,0.4-0.9,0.9-0.9h12.8
		c0.5,0,0.9,0.4,0.9,0.9V17.2z"/>
	<linearGradient id="SVGID_2_" gradientUnits="userSpaceOnUse" x1="11.3184" y1="4.2661" x2="13.6445" y2="4.2661">
		<stop  offset="0.3659" style="stop-color:#DBDBDB"/>
		<stop  offset="0.6634" style="stop-color:#E5E5E5"/>
	</linearGradient>
	<rect x="11.3" y="2.2" fill="url(#SVGID_2_)" width="2.3" height="4.1"/>
</g>
</svg>
