<?xml version="1.0" encoding="utf-8"?>
<!-- Generator: Adobe Illustrator 18.1.1, SVG Export Plug-In . SVG Version: 6.00 Build 0)  -->
<svg version="1.1" id="Layer_1" xmlns="http://www.w3.org/2000/svg" xmlns:xlink="http://www.w3.org/1999/xlink" x="0px" y="0px"
	 width="23.8px" height="22px" viewBox="0 0 23.8 22" enable-background="new 0 0 23.8 22" xml:space="preserve">
<g>
	<linearGradient id="SVGID_1_" gradientUnits="userSpaceOnUse" x1="16.1164" y1="4.1292" x2="16.1164" y2="0.9172">
		<stop  offset="0.3659" style="stop-color:#DBDBDB"/>
		<stop  offset="0.6634" style="stop-color:#E5E5E5"/>
	</linearGradient>
	<polygon fill="url(#SVGID_1_)" points="17.7,0.9 14.5,0.9 17.7,4.1 	"/>
	<linearGradient id="SVGID_2_" gradientUnits="userSpaceOnUse" x1="11.9167" y1="12.8333" x2="11.9167" y2="1.818989e-12">
		<stop  offset="0.3659" style="stop-color:#DBDBDB"/>
		<stop  offset="0.6634" style="stop-color:#E5E5E5"/>
	</linearGradient>
	<path fill="url(#SVGID_2_)" d="M23.6,11.3l-11-11c-0.4-0.4-0.9-0.4-1.3,0c0,0,0,0,0,0l-11,11c-0.4,0.4-0.4,0.9,0,1.3
		c0.2,0.2,0.4,0.3,0.6,0.3c0.2,0,0.5-0.1,0.6-0.3L11.9,2.2l10.4,10.4c0.2,0.2,0.4,0.3,0.6,0.3c0.2,0,0.5-0.1,0.6-0.3
		C23.9,12.2,23.9,11.6,23.6,11.3z"/>
	<linearGradient id="SVGID_3_" gradientUnits="userSpaceOnUse" x1="11.9172" y1="22.0003" x2="11.9172" y2="3.6672">
		<stop  offset="0.3659" style="stop-color:#DBDBDB"/>
		<stop  offset="0.6634" style="stop-color:#E5E5E5"/>
	</linearGradient>
	<path fill="url(#SVGID_3_)" d="M2.8,12.8v7.3c0,1,0.8,1.8,1.8,1.8h4.6v-6.4c0-1,0.8-1.8,1.8-1.8h1.8c1,0,1.8,0.8,1.8,1.8V22h4.6
		c1,0,1.8-0.8,1.8-1.8v-7.3l-9.2-9.2L2.8,12.8z"/>
</g>
</svg>
