<?xml version="1.0" encoding="utf-8"?>
<!-- Generator: Adobe Illustrator 18.1.1, SVG Export Plug-In . SVG Version: 6.00 Build 0)  -->
<svg version="1.1" id="Layer_1" xmlns="http://www.w3.org/2000/svg" xmlns:xlink="http://www.w3.org/1999/xlink" x="0px" y="0px"
	 width="19.7px" height="20px" viewBox="0 0 19.7 20" enable-background="new 0 0 19.7 20" xml:space="preserve">
<linearGradient id="SVGID_1_" gradientUnits="userSpaceOnUse" x1="0" y1="10" x2="19.7382" y2="10">
	<stop  offset="0.3659" style="stop-color:#DBDBDB"/>
	<stop  offset="0.6634" style="stop-color:#E5E5E5"/>
</linearGradient>
<path fill="url(#SVGID_1_)" d="M18.1,9.4h-2.2c0-2.9,0-5.4,0-5.4c0-0.5-0.4-0.9-0.9-0.9c0,0-12.7,0-12.7,0c-0.8,0-1.1-0.7-1.1-1.1
	c0-0.4,0.3-1,1.2-1c0,0,12.7,0,12.7,0c0.3,0,0.6-0.2,0.6-0.5S15.3,0,15.1,0H2.4C1,0,0,0.8,0,2.1v16c0,1.1,0.9,2,2,2h11.9
	c1.1,0,2-0.9,2-2c0,0,0-0.6,0-1.4h2.2c0.9,0,1.6-0.7,1.6-1.6V11C19.7,10.1,19,9.4,18.1,9.4z M19,15c0,0.5-0.4,0.9-0.9,0.9H7
	c-0.5,0-0.9-0.4-0.9-0.9V11c0-0.5,0.4-0.9,0.9-0.9h11.1c0.5,0,0.9,0.4,0.9,0.9V15z M12.9,11.2h-1.6v3.5h1.6c1.1,0,1.7-0.7,1.7-1.8
	C14.6,11.9,13.9,11.2,12.9,11.2z M12.8,14.1h-0.7V12h0.5c0.8,0,1,0.4,1,1.1C13.7,13.8,13.3,14.1,12.8,14.1z M9.5,11.2H7.8v3.5h0.9
	v-1.1h0.8c1,0,1.3-0.6,1.3-1.2C10.8,11.9,10.5,11.2,9.5,11.2z M9.3,13H8.7V12h0.6c0.4,0,0.8,0.1,0.8,0.5C10.1,12.9,9.7,13,9.3,13z
	 M15.2,14.8v-3.5h2.6V12h-1.7v0.7h1.5v0.7h-1.5v1.4H15.2z"/>
</svg>
