<?xml version="1.0" encoding="utf-8"?>
<!-- Generator: Adobe Illustrator 18.1.1, SVG Export Plug-In . SVG Version: 6.00 Build 0)  -->
<svg version="1.1" id="Layer_1" xmlns="http://www.w3.org/2000/svg" xmlns:xlink="http://www.w3.org/1999/xlink" x="0px" y="0px"
	 width="142.2px" height="144.7px" viewBox="0 0 142.2 144.7" enable-background="new 0 0 142.2 144.7" xml:space="preserve">
<g>
	<path fill="#FFFFFF" d="M97.6,78.6c0,0-1-0.3-2.9-0.6C93,83.9,82.3,88.4,69.5,88.4c-12.4,0-22.7-4.2-24.9-9.8
		c-48,11.9-44.5,56.5-44.5,56.5c70.2,21.5,142.1,0,142.1,0S145.6,90.4,97.6,78.6z"/>
	<path fill="#FFFFFF" d="M103.8,38.2C103.8,10.1,89.2,0,71.1,0C53,0,38.3,10.1,38.3,38.2c0,21.1,14.7,38.2,32.8,38.2
		C89.2,76.4,103.8,59.3,103.8,38.2z"/>
</g>
</svg>
