<?xml version="1.0" encoding="utf-8"?>
<!-- Generator: Adobe Illustrator 18.1.1, SVG Export Plug-In . SVG Version: 6.00 Build 0)  -->
<svg version="1.1" id="Layer_1" xmlns="http://www.w3.org/2000/svg" xmlns:xlink="http://www.w3.org/1999/xlink" x="0px" y="0px"
	 width="97.7px" height="144.7px" viewBox="0 0 97.7 144.7" enable-background="new 0 0 97.7 144.7" xml:space="preserve">
<g>
	<path fill="#FFFFFF" d="M0.8,87.4l45.1,27.7L0,141.1L0.8,87.4z M7.1,114l11.9,7.8l10.9-7.4L7.1,99.6V114z"/>
	<polygon fill="#FFFFFF" points="1.7,81.3 37.3,23.6 68.3,42.4 31.7,99.6 	"/>
	<polygon fill="#FFFFFF" points="72.9,45.4 86.6,53.8 50,111.3 37.3,103.2 	"/>
	<path fill="#FFFFFF" d="M42.4,17l45.3,29l8.1-12.7c0,0,4.3-7.6,0-12C91.5,17,64.8,1.2,64.8,1.2s-7.5-2.7-10.2,0
		C51.9,3.8,42.4,17,42.4,17z"/>
	<polygon fill="#FFFFFF" points="31.2,136 93.5,136 93.5,144.7 22,144.7 	"/>
</g>
</svg>
