<?xml version="1.0" encoding="utf-8"?>
<!-- Generator: Adobe Illustrator 18.1.1, SVG Export Plug-In . SVG Version: 6.00 Build 0)  -->
<svg version="1.1" id="Layer_1" xmlns="http://www.w3.org/2000/svg" xmlns:xlink="http://www.w3.org/1999/xlink" x="0px" y="0px"
	 width="80px" height="25px" viewBox="-979.6 948.5 80 25" enable-background="new -979.6 948.5 80 25" xml:space="preserve">
<g>
	<path fill="#FFFFFF" d="M-941.5,973.5h-36.1c-1,0-1.9-0.8-1.9-1.9s0.8-1.9,1.9-1.9h36.1c1,0,1.9,0.8,1.9,1.9
		S-940.5,973.5-941.5,973.5z"/>
	<path fill="#FFFFFF" d="M-941.5,962.9h-36.1c-1,0-1.9-0.8-1.9-1.9s0.8-1.9,1.9-1.9h36.1c1,0,1.9,0.8,1.9,1.9
		S-940.5,962.9-941.5,962.9z"/>
	<path fill="#FFFFFF" d="M-941.5,952.4h-36.1c-1.1,0-1.9-0.9-1.9-1.9c0-1,0.8-1.9,1.9-1.9h36.1c1,0,1.9,0.8,1.9,1.9
		S-940.5,952.4-941.5,952.4z"/>
</g>
<g>
	<path fill="#FFFFFF" d="M-910.6,972.9l-20.7-21c-0.8-0.8-0.7-2,0-2.8c0.7-0.7,1.9-0.8,2.7,0l20.7,21c0.7,0.7,0.8,2,0,2.8
		C-908.7,973.7-909.9,973.7-910.6,972.9z"/>
	<path fill="#FFFFFF" d="M-931.3,970.1l20.7-21c0.8-0.8,2-0.7,2.7,0c0.7,0.7,0.8,2,0,2.8l-20.7,21c-0.7,0.7-1.9,0.8-2.7,0
		C-932.1,972.1-932,970.9-931.3,970.1z"/>
</g>
</svg>
