<?xml version="1.0" encoding="utf-8"?>
<!-- Generator: Adobe Illustrator 18.1.1, SVG Export Plug-In . SVG Version: 6.00 Build 0)  -->
<svg version="1.1" id="Layer_1" xmlns="http://www.w3.org/2000/svg" xmlns:xlink="http://www.w3.org/1999/xlink" x="0px" y="0px"
	 width="139.3px" height="144.7px" viewBox="0 0 139.3 144.7" enable-background="new 0 0 139.3 144.7" xml:space="preserve">
<g id="ICON_1_">
	<path fill="#FFFFFF" d="M27.4,1.6c0,0-34,8.5-26.3,38.6c7.7,30.2,20.4,55.4,34.2,67.9c13.7,12.5,49.3,45.3,78,34.4
		c0,0,13.9-6.6,23.3-16.2l-42.5-19.1c0,0-9.1,9.1-17.9,1.9c-8.8-7.2-39.4-43-39.4-43s-9-11.8,2.6-20.5L27.4,1.6z"/>
	<path fill="#FFFFFF" d="M31.4,0.7c0,0,2.4-1.5,8,0c5.5,1.5,6.1,3.7,6.1,3.7l7.7,30.1c0,0-0.9,2.1-2.3,4.3c-1.4,2.2-6.5,6.2-7.8,4.6
		C41.8,41.8,31.4,0.7,31.4,0.7"/>
	<path fill="#FFFFFF" d="M96.8,104.8c0,0,0.4-2.8,5-6.1c4.7-3.3,6.7-2.3,6.7-2.3l28.4,13.1c0,0,1.1,2,1.9,4.4
		c0.8,2.4,0.7,8.9-1.3,8.9C135.5,122.9,96.8,104.8,96.8,104.8"/>
</g>
</svg>
