<?xml version="1.0" encoding="utf-8"?>
<!-- Generator: Adobe Illustrator 18.1.1, SVG Export Plug-In . SVG Version: 6.00 Build 0)  -->
<svg version="1.1" id="Layer_1" xmlns="http://www.w3.org/2000/svg" xmlns:xlink="http://www.w3.org/1999/xlink" x="0px" y="0px"
	 width="34px" height="34px" viewBox="0 0 34 34" enable-background="new 0 0 34 34" xml:space="preserve">
<g>
	<path fill="#FFFFFF" d="M6.1,8.8c12.3-3.3,21.8,0.2,21.8,0.2c1.4,1.1,1.1,3.3,1.1,3.3c-6.9-1.4-12,2.4-12,2.4c-4.3-4-12-2.3-12-2.3
		C4.5,9.1,6.1,8.8,6.1,8.8z"/>
	<path fill="#FFFFFF" d="M6.1,7.9L0,4.7L17,0l17,4.7l-6.1,3.2C18.1,3.7,6.1,7.9,6.1,7.9z"/>
	<path fill="#FFFFFF" d="M24,13.3c-2.7,0-5.2,1.1-7,2.9c-1.8-1.8-4.3-2.9-7-2.9c-5.5,0-10,4.5-10,10c0,5.5,4.5,10,10,10
		c1.8,0,3.5-0.5,5-1.3l2,2l2-2c1.5,0.9,3.2,1.3,5,1.3c5.5,0,10-4.5,10-10C34,17.8,29.5,13.3,24,13.3z M6,23.3c0-2.2,1.8-4,4-4
		s4,1.8,4,4c0,2.2-1.8,4-4,4S6,25.5,6,23.3z M24,27.3c-2.2,0-4-1.8-4-4c0-2.2,1.8-4,4-4c2.2,0,4,1.8,4,4C28,25.5,26.2,27.3,24,27.3z
		"/>
</g>
</svg>
