<?xml version="1.0" encoding="utf-8"?>
<!-- Generator: Adobe Illustrator 18.1.1, SVG Export Plug-In . SVG Version: 6.00 Build 0)  -->
<svg version="1.1" id="Layer_1" xmlns="http://www.w3.org/2000/svg" xmlns:xlink="http://www.w3.org/1999/xlink" x="0px" y="0px"
	 width="231.8px" height="80px" viewBox="-843 921 231.8 80" enable-background="new -843 921 231.8 80" xml:space="preserve">
<g>
	<g>
		<path fill="#2A3644" d="M-828.7,941.6c29-7.7,51.4,0.4,51.4,0.4c3.4,2.6,2.5,7.8,2.5,7.8c-16.3-3.3-28.1,5.6-28.1,5.6
			C-813,946.1-831,950-831,950C-832.4,942.5-828.7,941.6-828.7,941.6z"/>
		<path fill="#2A3644" d="M-828.7,939.6l-14.3-7.4l40-11.2l40,11.2l-14.3,7.4C-800.5,929.7-828.7,939.6-828.7,939.6z"/>
		<path fill="#2A3644" d="M-786.5,952.4c-6.4,0-12.3,2.6-16.5,6.8c-4.2-4.2-10.1-6.8-16.5-6.8c-13,0-23.5,10.5-23.5,23.5
			s10.5,23.5,23.5,23.5c4.3,0,8.3-1.1,11.7-3.1l4.8,4.7l4.8-4.8c3.5,2,7.5,3.1,11.7,3.1c13,0,23.5-10.5,23.5-23.5
			C-763,962.9-773.5,952.4-786.5,952.4z M-828.9,975.9c0-5.2,4.2-9.4,9.4-9.4s9.4,4.2,9.4,9.4c0,5.2-4.2,9.4-9.4,9.4
			S-828.9,981.1-828.9,975.9z M-786.5,985.3c-5.2,0-9.4-4.2-9.4-9.4c0-5.2,4.2-9.4,9.4-9.4s9.4,4.2,9.4,9.4
			C-777.1,981.1-781.3,985.3-786.5,985.3z"/>
	</g>
	<g enable-background="new    ">
		<path fill="#2A3644" d="M-747.7,955.8h3.7l-5.9,17.3h-4l-5.9-17.3h3.7l3.3,10.3c0.2,0.6,0.4,1.3,0.6,2.1s0.3,1.4,0.4,1.7
			c0.1-0.7,0.4-2,0.9-3.8L-747.7,955.8z"/>
		<path fill="#2A3644" d="M-731.8,973.1h-10v-17.3h10v3h-6.3v3.8h5.9v3h-5.9v4.5h6.3V973.1z"/>
		<path fill="#2A3644" d="M-721.5,973.1h-3.7v-14.3h-4.7v-3.1h13.1v3.1h-4.7V973.1z"/>
		<path fill="#2A3644" d="M-704.2,973.1h-10v-17.3h10v3h-6.3v3.8h5.9v3h-5.9v4.5h6.3V973.1z"/>
		<path fill="#2A3644" d="M-696.9,966.5v6.6h-3.7v-17.3h5c2.4,0,4.1,0.4,5.2,1.3s1.7,2.2,1.7,3.9c0,1-0.3,1.9-0.8,2.7
			s-1.4,1.4-2.4,1.9c2.6,3.9,4.3,6.4,5.1,7.5h-4.1l-4.1-6.6H-696.9z M-696.9,963.5h1.2c1.2,0,2-0.2,2.6-0.6c0.6-0.4,0.8-1,0.8-1.8
			c0-0.8-0.3-1.4-0.8-1.8c-0.6-0.3-1.4-0.5-2.6-0.5h-1.1V963.5z"/>
		<path fill="#2A3644" d="M-684.6,973.1v-17.3h3.7v17.3H-684.6z"/>
		<path fill="#2A3644" d="M-661.2,973.1h-4.7l-7.5-13.1h-0.1c0.2,2.3,0.2,4,0.2,4.9v8.1h-3.3v-17.3h4.6l7.5,13h0.1
			c-0.1-2.2-0.2-3.8-0.2-4.8v-8.2h3.3V973.1z"/>
		<path fill="#2A3644" d="M-646.2,973.1l-1.3-4.1h-6.3l-1.3,4.1h-4l6.1-17.4h4.5l6.1,17.4H-646.2z M-648.4,965.9
			c-1.2-3.7-1.8-5.8-2-6.3c-0.1-0.5-0.3-0.9-0.3-1.2c-0.3,1-1,3.5-2.2,7.5H-648.4z"/>
		<path fill="#2A3644" d="M-636.4,966.5v6.6h-3.7v-17.3h5c2.4,0,4.1,0.4,5.2,1.3c1.1,0.9,1.7,2.2,1.7,3.9c0,1-0.3,1.9-0.8,2.7
			s-1.4,1.4-2.4,1.9c2.6,3.9,4.3,6.4,5.1,7.5h-4.1l-4.1-6.6H-636.4z M-636.4,963.5h1.2c1.2,0,2-0.2,2.6-0.6s0.8-1,0.8-1.8
			c0-0.8-0.3-1.4-0.8-1.8s-1.4-0.5-2.6-0.5h-1.1V963.5z"/>
		<path fill="#2A3644" d="M-618.7,963l3.6-7.1h4l-5.7,10.6v6.7h-3.6v-6.6l-5.7-10.7h4L-618.7,963z"/>
	</g>
	<g enable-background="new    ">
		<path fill="#2A3644" d="M-749.5,988.8h4.6v6.6c-0.7,0.2-1.4,0.4-2.2,0.5c-0.7,0.1-1.6,0.2-2.6,0.2c-2,0-3.6-0.6-4.8-1.8
			s-1.7-2.9-1.7-5.1c0-1.4,0.3-2.6,0.8-3.7c0.6-1.1,1.4-1.9,2.4-2.4c1.1-0.6,2.3-0.8,3.7-0.8c1.4,0,2.8,0.3,4,0.8l-0.6,1.4
			c-1.2-0.5-2.4-0.8-3.5-0.8c-1.6,0-2.9,0.5-3.9,1.5s-1.4,2.3-1.4,4.1c0,1.8,0.4,3.2,1.3,4.1c0.9,0.9,2.2,1.4,3.9,1.4
			c0.9,0,1.8-0.1,2.7-0.3v-4.2h-3V988.8z"/>
		<path fill="#2A3644" d="M-740.1,990.2v5.6h-1.6v-13.5h3.7c1.7,0,2.9,0.3,3.7,1c0.8,0.6,1.2,1.6,1.2,2.9c0,1.8-0.9,3-2.7,3.6
			l3.7,6.1h-1.9l-3.3-5.6H-740.1z M-740.1,988.9h2.2c1.1,0,1.9-0.2,2.4-0.7c0.5-0.4,0.8-1.1,0.8-2c0-0.9-0.3-1.5-0.8-1.9
			c-0.5-0.4-1.4-0.6-2.5-0.6h-2V988.9z"/>
		<path fill="#2A3644" d="M-721.5,995.8l-1.7-4.3h-5.4l-1.7,4.3h-1.6l5.3-13.6h1.3l5.3,13.6H-721.5z M-723.7,990.1l-1.6-4.2
			c-0.2-0.5-0.4-1.2-0.6-1.9c-0.1,0.6-0.3,1.2-0.6,1.9l-1.6,4.2H-723.7z"/>
		<path fill="#2A3644" d="M-707.3,989c0,2.2-0.6,3.9-1.8,5.1c-1.2,1.2-3,1.8-5.2,1.8h-3.7v-13.5h4.1c2.1,0,3.7,0.6,4.9,1.7
			C-707.8,985.3-707.3,986.9-707.3,989z M-708.9,989c0-1.8-0.4-3.1-1.3-4c-0.9-0.9-2.2-1.3-3.9-1.3h-2.3v10.8h1.9
			c1.9,0,3.3-0.5,4.2-1.4C-709.4,992.2-708.9,990.8-708.9,989z"/>
		<path fill="#2A3644" d="M-694.1,982.3v8.7c0,1.5-0.5,2.7-1.4,3.6c-0.9,0.9-2.2,1.3-3.8,1.3s-2.9-0.4-3.8-1.3
			c-0.9-0.9-1.3-2.1-1.3-3.7v-8.7h1.6v8.8c0,1.1,0.3,2,0.9,2.6c0.6,0.6,1.5,0.9,2.7,0.9c1.1,0,2-0.3,2.6-0.9
			c0.6-0.6,0.9-1.5,0.9-2.6v-8.8H-694.1z"/>
		<path fill="#2A3644" d="M-682,995.8l-1.7-4.3h-5.4l-1.7,4.3h-1.6l5.3-13.6h1.3l5.3,13.6H-682z M-684.2,990.1l-1.6-4.2
			c-0.2-0.5-0.4-1.2-0.6-1.9c-0.1,0.6-0.3,1.2-0.6,1.9l-1.6,4.2H-684.2z"/>
		<path fill="#2A3644" d="M-674.4,995.8h-1.6v-12.1h-4.3v-1.4h10.1v1.4h-4.3V995.8z"/>
		<path fill="#2A3644" d="M-660.5,995.8h-7.5v-13.5h7.5v1.4h-6v4.3h5.6v1.4h-5.6v5h6V995.8z"/>
		<path fill="#2A3644" d="M-652.6,995.8v-13.5h1.6v12.1h6v1.4H-652.6z"/>
		<path fill="#2A3644" d="M-642.8,995.8v-13.5h1.6v13.5H-642.8z"/>
		<path fill="#2A3644" d="M-627,995.8h-1.8l-7.4-11.3h-0.1c0.1,1.3,0.1,2.5,0.1,3.7v7.7h-1.4v-13.5h1.8l7.4,11.3h0.1
			c0-0.2,0-0.7-0.1-1.6c0-0.9-0.1-1.5,0-1.9v-7.7h1.5V995.8z"/>
		<path fill="#2A3644" d="M-613.5,995.8h-1.8l-4.9-6.5l-1.4,1.3v5.3h-1.6v-13.5h1.6v6.7l6.1-6.7h1.9l-5.4,5.9L-613.5,995.8z"/>
	</g>
</g>
</svg>
