<?xml version="1.0" encoding="utf-8"?>
<!-- Generator: Adobe Illustrator 18.1.1, SVG Export Plug-In . SVG Version: 6.00 Build 0)  -->
<svg version="1.1" id="Layer_1" xmlns="http://www.w3.org/2000/svg" xmlns:xlink="http://www.w3.org/1999/xlink" x="0px" y="0px"
	 width="89px" height="112.7px" viewBox="0 0 89 112.7" enable-background="new 0 0 89 112.7" xml:space="preserve">
<g>
	<g>
		<path fill="#2A3644" d="M18.8,20.6c29-7.7,51.3,0.4,51.3,0.4c3.4,2.6,2.5,7.8,2.5,7.8c-16.2-3.3-28.1,5.6-28.1,5.6
			c-10-9.3-28.1-5.4-28.1-5.4C15.1,21.4,18.8,20.6,18.8,20.6z"/>
		<path fill="#2A3644" d="M18.8,18.6L4.6,11.2L44.5,0l39.9,11.2l-14.3,7.4C47,8.7,18.8,18.6,18.8,18.6z"/>
		<path fill="#2A3644" d="M61,31.4c-6.4,0-12.3,2.6-16.5,6.8c-4.2-4.2-10.1-6.8-16.5-6.8c-13,0-23.5,10.5-23.5,23.5
			c0,13,10.5,23.5,23.5,23.5c4.3,0,8.3-1.1,11.7-3.1l4.8,4.8l4.8-4.8c3.4,2,7.5,3.1,11.7,3.1c13,0,23.5-10.5,23.5-23.5
			C84.4,41.9,73.9,31.4,61,31.4z M18.6,54.8c0-5.2,4.2-9.4,9.4-9.4s9.4,4.2,9.4,9.4c0,5.2-4.2,9.4-9.4,9.4S18.6,60,18.6,54.8z
			 M61,64.2c-5.2,0-9.4-4.2-9.4-9.4c0-5.2,4.2-9.4,9.4-9.4c5.2,0,9.4,4.2,9.4,9.4C70.4,60,66.2,64.2,61,64.2z"/>
	</g>
	<g>
		<path fill="#2A3644" d="M7.2,85.6h2.2L5.9,96H3.5L0,85.6h2.2l2,6.2c0.1,0.4,0.2,0.8,0.3,1.3c0.1,0.5,0.2,0.8,0.2,1
			c0.1-0.4,0.2-1.2,0.5-2.3L7.2,85.6z"/>
		<path fill="#2A3644" d="M16.7,96h-6V85.6h6v1.8h-3.8v2.3h3.5v1.8h-3.5v2.7h3.8V96z"/>
		<path fill="#2A3644" d="M22.9,96h-2.2v-8.5h-2.8v-1.8h7.8v1.8h-2.8V96z"/>
		<path fill="#2A3644" d="M33.3,96h-6V85.6h6v1.8h-3.8v2.3H33v1.8h-3.5v2.7h3.8V96z"/>
		<path fill="#2A3644" d="M37.6,92v4h-2.2V85.6h3c1.4,0,2.5,0.3,3.1,0.8c0.7,0.5,1,1.3,1,2.3c0,0.6-0.2,1.2-0.5,1.6
			c-0.3,0.5-0.8,0.8-1.4,1.1c1.6,2.3,2.6,3.8,3,4.5h-2.4l-2.5-4H37.6z M37.6,90.2h0.7c0.7,0,1.2-0.1,1.5-0.3
			c0.3-0.2,0.5-0.6,0.5-1.1c0-0.5-0.2-0.8-0.5-1.1c-0.3-0.2-0.9-0.3-1.6-0.3h-0.7V90.2z"/>
		<path fill="#2A3644" d="M45,96V85.6h2.2V96H45z"/>
		<path fill="#2A3644" d="M59,96h-2.8l-4.5-7.8h-0.1c0.1,1.4,0.1,2.4,0.1,3V96h-2V85.6h2.8l4.5,7.8h0C57.1,92,57,91.1,57,90.5v-4.9
			h2V96z"/>
		<path fill="#2A3644" d="M68,96l-0.8-2.5h-3.8L62.7,96h-2.4L64,85.6h2.7L70.3,96H68z M66.7,91.7c-0.7-2.2-1.1-3.5-1.2-3.8
			c-0.1-0.3-0.2-0.5-0.2-0.7c-0.2,0.6-0.6,2.1-1.3,4.5H66.7z"/>
		<path fill="#2A3644" d="M73.9,92v4h-2.2V85.6h3c1.4,0,2.5,0.3,3.1,0.8c0.7,0.5,1,1.3,1,2.3c0,0.6-0.2,1.2-0.5,1.6
			c-0.3,0.5-0.8,0.8-1.4,1.1c1.6,2.3,2.6,3.8,3,4.5h-2.4L75,92H73.9z M73.9,90.2h0.7c0.7,0,1.2-0.1,1.5-0.3c0.3-0.2,0.5-0.6,0.5-1.1
			c0-0.5-0.2-0.8-0.5-1.1c-0.3-0.2-0.9-0.3-1.6-0.3h-0.7V90.2z"/>
		<path fill="#2A3644" d="M84.5,89.9l2.2-4.3H89l-3.4,6.3v4h-2.2v-4l-3.4-6.4h2.4L84.5,89.9z"/>
		<path fill="#2A3644" d="M5.9,105.4h2.8v3.9c-0.4,0.1-0.9,0.2-1.3,0.3s-1,0.1-1.5,0.1c-1.2,0-2.2-0.4-2.9-1.1c-0.7-0.7-1-1.8-1-3.1
			c0-0.8,0.2-1.6,0.5-2.2s0.8-1.1,1.5-1.5c0.6-0.3,1.4-0.5,2.2-0.5c0.9,0,1.7,0.2,2.4,0.5l-0.4,0.8c-0.7-0.3-1.4-0.5-2.1-0.5
			c-1,0-1.8,0.3-2.3,0.9c-0.6,0.6-0.8,1.4-0.8,2.4c0,1.1,0.3,1.9,0.8,2.5c0.5,0.6,1.3,0.9,2.4,0.9c0.6,0,1.1-0.1,1.7-0.2v-2.5H5.9
			V105.4z"/>
		<path fill="#2A3644" d="M11.6,106.2v3.4h-0.9v-8.1h2.2c1,0,1.7,0.2,2.2,0.6c0.5,0.4,0.7,1,0.7,1.7c0,1.1-0.5,1.8-1.6,2.2l2.2,3.6
			h-1.1l-2-3.4H11.6z M11.6,105.4h1.3c0.7,0,1.2-0.1,1.5-0.4s0.5-0.7,0.5-1.2c0-0.5-0.2-0.9-0.5-1.2c-0.3-0.2-0.8-0.4-1.5-0.4h-1.2
			V105.4z"/>
		<path fill="#2A3644" d="M22.8,109.6l-1-2.6h-3.3l-1,2.6h-1l3.2-8.2h0.8l3.2,8.2H22.8z M21.5,106.2l-0.9-2.5
			c-0.1-0.3-0.2-0.7-0.4-1.2c-0.1,0.4-0.2,0.7-0.4,1.2l-1,2.5H21.5z"/>
		<path fill="#2A3644" d="M31.4,105.5c0,1.3-0.4,2.4-1.1,3.1c-0.7,0.7-1.8,1.1-3.1,1.1h-2.2v-8.1h2.5c1.3,0,2.2,0.3,2.9,1
			S31.4,104.2,31.4,105.5z M30.4,105.5c0-1.1-0.3-1.9-0.8-2.4s-1.3-0.8-2.4-0.8h-1.4v6.5H27c1.1,0,2-0.3,2.5-0.8
			C30.1,107.4,30.4,106.6,30.4,105.5z"/>
		<path fill="#2A3644" d="M39.3,101.5v5.3c0,0.9-0.3,1.7-0.8,2.2c-0.6,0.5-1.3,0.8-2.3,0.8s-1.7-0.3-2.3-0.8s-0.8-1.3-0.8-2.2v-5.2
			H34v5.3c0,0.7,0.2,1.2,0.6,1.6s0.9,0.5,1.6,0.5c0.7,0,1.2-0.2,1.6-0.5s0.6-0.9,0.6-1.6v-5.3H39.3z"/>
		<path fill="#2A3644" d="M46.6,109.6l-1-2.6h-3.3l-1,2.6h-1l3.2-8.2h0.8l3.2,8.2H46.6z M45.3,106.2l-0.9-2.5
			c-0.1-0.3-0.2-0.7-0.4-1.2c-0.1,0.4-0.2,0.7-0.4,1.2l-1,2.5H45.3z"/>
		<path fill="#2A3644" d="M51.2,109.6h-0.9v-7.3h-2.6v-0.8h6.1v0.8h-2.6V109.6z"/>
		<path fill="#2A3644" d="M59.5,109.6h-4.5v-8.1h4.5v0.8h-3.6v2.6h3.4v0.8h-3.4v3h3.6V109.6z"/>
		<path fill="#2A3644" d="M64.2,109.6v-8.1h0.9v7.3h3.6v0.9H64.2z"/>
		<path fill="#2A3644" d="M70.1,109.6v-8.1h0.9v8.1H70.1z"/>
		<path fill="#2A3644" d="M79.7,109.6h-1.1l-4.4-6.8h0c0.1,0.8,0.1,1.5,0.1,2.2v4.6h-0.9v-8.1h1.1l4.4,6.8h0c0-0.1,0-0.4,0-1
			c0-0.5,0-0.9,0-1.2v-4.7h0.9V109.6z"/>
		<path fill="#2A3644" d="M87.8,109.6h-1.1l-3-3.9l-0.8,0.8v3.2h-0.9v-8.1h0.9v4l3.7-4h1.1l-3.3,3.5L87.8,109.6z"/>
	</g>
</g>
<g>
</g>
<g>
</g>
<g>
</g>
<g>
</g>
<g>
</g>
<g>
</g>
</svg>
