<?xml version="1.0" encoding="utf-8"?>
<!-- Generator: Adobe Illustrator 18.1.1, SVG Export Plug-In . SVG Version: 6.00 Build 0)  -->
<svg version="1.1" id="Layer_1" xmlns="http://www.w3.org/2000/svg" xmlns:xlink="http://www.w3.org/1999/xlink" x="0px" y="0px"
	 width="89px" height="112.7px" viewBox="-915 904.3 89 112.7" enable-background="new -915 904.3 89 112.7" xml:space="preserve">
<g>
	<g>
		<path fill="#FFFFFF" d="M-896.2,924.9c29-7.7,51.3,0.4,51.3,0.4c3.4,2.6,2.5,7.8,2.5,7.8c-16.2-3.3-28.1,5.6-28.1,5.6
			c-10-9.3-28.1-5.4-28.1-5.4C-899.9,925.7-896.2,924.9-896.2,924.9z"/>
		<path fill="#FFFFFF" d="M-896.2,922.9l-14.2-7.4l39.9-11.2l39.9,11.2l-14.3,7.4C-868,913-896.2,922.9-896.2,922.9z"/>
		<path fill="#FFFFFF" d="M-854,935.7c-6.4,0-12.3,2.6-16.5,6.8c-4.2-4.2-10.1-6.8-16.5-6.8c-13,0-23.5,10.5-23.5,23.5
			s10.5,23.5,23.5,23.5c4.3,0,8.3-1.1,11.7-3.1l4.8,4.8l4.8-4.8c3.4,2,7.5,3.1,11.7,3.1c13,0,23.5-10.5,23.5-23.5
			C-830.6,946.2-841.1,935.7-854,935.7z M-896.4,959.1c0-5.2,4.2-9.4,9.4-9.4s9.4,4.2,9.4,9.4s-4.2,9.4-9.4,9.4
			S-896.4,964.3-896.4,959.1z M-854,968.5c-5.2,0-9.4-4.2-9.4-9.4s4.2-9.4,9.4-9.4s9.4,4.2,9.4,9.4S-848.8,968.5-854,968.5z"/>
	</g>
	<g>
		<path fill="#FFFFFF" d="M-907.8,989.9h2.2l-3.5,10.4h-2.4l-3.5-10.4h2.2l2,6.2c0.1,0.4,0.2,0.8,0.3,1.3s0.2,0.8,0.2,1
			c0.1-0.4,0.2-1.2,0.5-2.3L-907.8,989.9z"/>
		<path fill="#FFFFFF" d="M-898.3,1000.3h-6v-10.4h6v1.8h-3.8v2.3h3.5v1.8h-3.5v2.7h3.8V1000.3z"/>
		<path fill="#FFFFFF" d="M-892.1,1000.3h-2.2v-8.5h-2.8V990h7.8v1.8h-2.8C-892.1,991.8-892.1,1000.3-892.1,1000.3z"/>
		<path fill="#FFFFFF" d="M-881.7,1000.3h-6v-10.4h6v1.8h-3.8v2.3h3.5v1.8h-3.5v2.7h3.8V1000.3z"/>
		<path fill="#FFFFFF" d="M-877.4,996.3v4h-2.2v-10.4h3c1.4,0,2.5,0.3,3.1,0.8c0.7,0.5,1,1.3,1,2.3c0,0.6-0.2,1.2-0.5,1.6
			c-0.3,0.5-0.8,0.8-1.4,1.1c1.6,2.3,2.6,3.8,3,4.5h-2.4l-2.5-4L-877.4,996.3L-877.4,996.3z M-877.4,994.5h0.7
			c0.7,0,1.2-0.1,1.5-0.3c0.3-0.2,0.5-0.6,0.5-1.1s-0.2-0.8-0.5-1.1c-0.3-0.2-0.9-0.3-1.6-0.3h-0.7L-877.4,994.5L-877.4,994.5z"/>
		<path fill="#FFFFFF" d="M-870,1000.3v-10.4h2.2v10.4H-870z"/>
		<path fill="#FFFFFF" d="M-856,1000.3h-2.8l-4.5-7.8h-0.1c0.1,1.4,0.1,2.4,0.1,3v4.8h-2v-10.4h2.8l4.5,7.8l0,0c0.1-1.4,0-2.3,0-2.9
			v-4.9h2V1000.3z"/>
		<path fill="#FFFFFF" d="M-847,1000.3l-0.8-2.5h-3.8l-0.7,2.5h-2.4l3.7-10.4h2.7l3.6,10.4H-847z M-848.3,996
			c-0.7-2.2-1.1-3.5-1.2-3.8c-0.1-0.3-0.2-0.5-0.2-0.7c-0.2,0.6-0.6,2.1-1.3,4.5H-848.3z"/>
		<path fill="#FFFFFF" d="M-841.1,996.3v4h-2.2v-10.4h3c1.4,0,2.5,0.3,3.1,0.8c0.7,0.5,1,1.3,1,2.3c0,0.6-0.2,1.2-0.5,1.6
			c-0.3,0.5-0.8,0.8-1.4,1.1c1.6,2.3,2.6,3.8,3,4.5h-2.4l-2.5-3.9H-841.1z M-841.1,994.5h0.7c0.7,0,1.2-0.1,1.5-0.3
			c0.3-0.2,0.5-0.6,0.5-1.1s-0.2-0.8-0.5-1.1c-0.3-0.2-0.9-0.3-1.6-0.3h-0.7v2.8H-841.1z"/>
		<path fill="#FFFFFF" d="M-830.5,994.2l2.2-4.3h2.3l-3.4,6.3v4h-2.2v-4l-3.4-6.4h2.4L-830.5,994.2z"/>
		<path fill="#FFFFFF" d="M-909.1,1009.7h2.8v3.9c-0.4,0.1-0.9,0.2-1.3,0.3c-0.4,0.1-1,0.1-1.5,0.1c-1.2,0-2.2-0.4-2.9-1.1
			c-0.7-0.7-1-1.8-1-3.1c0-0.8,0.2-1.6,0.5-2.2c0.3-0.6,0.8-1.1,1.5-1.5c0.6-0.3,1.4-0.5,2.2-0.5c0.9,0,1.7,0.2,2.4,0.5l-0.4,0.8
			c-0.7-0.3-1.4-0.5-2.1-0.5c-1,0-1.8,0.3-2.3,0.9c-0.6,0.6-0.8,1.4-0.8,2.4c0,1.1,0.3,1.9,0.8,2.5c0.5,0.6,1.3,0.9,2.4,0.9
			c0.6,0,1.1-0.1,1.7-0.2v-2.5h-2V1009.7z"/>
		<path fill="#FFFFFF" d="M-903.4,1010.5v3.4h-0.9v-8.1h2.2c1,0,1.7,0.2,2.2,0.6c0.5,0.4,0.7,1,0.7,1.7c0,1.1-0.5,1.8-1.6,2.2
			l2.2,3.6h-1.1l-2-3.4C-901.7,1010.5-903.4,1010.5-903.4,1010.5z M-903.4,1009.7h1.3c0.7,0,1.2-0.1,1.5-0.4
			c0.3-0.3,0.5-0.7,0.5-1.2s-0.2-0.9-0.5-1.2c-0.3-0.2-0.8-0.4-1.5-0.4h-1.2v3.2H-903.4z"/>
		<path fill="#FFFFFF" d="M-892.2,1013.9l-1-2.6h-3.3l-1,2.6h-1l3.2-8.2h0.8l3.2,8.2H-892.2z M-893.5,1010.5l-0.9-2.5
			c-0.1-0.3-0.2-0.7-0.4-1.2c-0.1,0.4-0.2,0.7-0.4,1.2l-1,2.5H-893.5z"/>
		<path fill="#FFFFFF" d="M-883.6,1009.8c0,1.3-0.4,2.4-1.1,3.1c-0.7,0.7-1.8,1.1-3.1,1.1h-2.2v-8.1h2.5c1.3,0,2.2,0.3,2.9,1
			C-883.9,1007.6-883.6,1008.5-883.6,1009.8z M-884.6,1009.8c0-1.1-0.3-1.9-0.8-2.4s-1.3-0.8-2.4-0.8h-1.4v6.5h1.2
			c1.1,0,2-0.3,2.5-0.8C-884.9,1011.7-884.6,1010.9-884.6,1009.8z"/>
		<path fill="#FFFFFF" d="M-875.7,1005.8v5.3c0,0.9-0.3,1.7-0.8,2.2c-0.6,0.5-1.3,0.8-2.3,0.8s-1.7-0.3-2.3-0.8
			c-0.6-0.5-0.8-1.3-0.8-2.2v-5.2h0.9v5.3c0,0.7,0.2,1.2,0.6,1.6c0.4,0.4,0.9,0.5,1.6,0.5s1.2-0.2,1.6-0.5c0.4-0.3,0.6-0.9,0.6-1.6
			v-5.3h0.9V1005.8z"/>
		<path fill="#FFFFFF" d="M-868.4,1013.9l-1-2.6h-3.3l-1,2.6h-1l3.2-8.2h0.8l3.2,8.2H-868.4z M-869.7,1010.5l-0.9-2.5
			c-0.1-0.3-0.2-0.7-0.4-1.2c-0.1,0.4-0.2,0.7-0.4,1.2l-1,2.5H-869.7z"/>
		<path fill="#FFFFFF" d="M-863.8,1013.9h-0.9v-7.3h-2.6v-0.8h6.1v0.8h-2.6V1013.9z"/>
		<path fill="#FFFFFF" d="M-855.5,1013.9h-4.5v-8.1h4.5v0.8h-3.6v2.6h3.4v0.8h-3.4v3h3.6V1013.9z"/>
		<path fill="#FFFFFF" d="M-850.8,1013.9v-8.1h0.9v7.3h3.6v0.9h-4.5V1013.9z"/>
		<path fill="#FFFFFF" d="M-844.9,1013.9v-8.1h0.9v8.1H-844.9z"/>
		<path fill="#FFFFFF" d="M-835.3,1013.9h-1.1l-4.4-6.8l0,0c0.1,0.8,0.1,1.5,0.1,2.2v4.6h-0.9v-8.1h1.1l4.4,6.8l0,0c0-0.1,0-0.4,0-1
			c0-0.5,0-0.9,0-1.2v-4.7h0.9L-835.3,1013.9L-835.3,1013.9z"/>
		<path fill="#FFFFFF" d="M-827.2,1013.9h-1.1l-3-3.9l-0.8,0.8v3.2h-0.9v-8.1h0.9v4l3.7-4h1.1l-3.3,3.5L-827.2,1013.9z"/>
	</g>
</g>
</svg>
