<?xml version="1.0" encoding="utf-8"?>
<!-- Generator: Adobe Illustrator 18.1.1, SVG Export Plug-In . SVG Version: 6.00 Build 0)  -->
<svg version="1.1" id="Layer_1" xmlns="http://www.w3.org/2000/svg" xmlns:xlink="http://www.w3.org/1999/xlink" x="0px" y="0px"
	 width="224px" height="280px" viewBox="0 0 224 280" enable-background="new 0 0 224 280" xml:space="preserve">
<path fill="#FFFFFF" d="M201.6,16.8h-11.5h-20.5L157.7,4.1c-2.1-2.3-6.3-4.1-9.4-4.1H75.7c-3.1,0-7.3,1.8-9.4,4.1L54.4,16.8H33.9
	H22.4C10.1,16.8,0,26.9,0,39.2v218.4C0,269.9,10.1,280,22.4,280h179.2c12.3,0,22.4-10.1,22.4-22.4V39.2
	C224,26.9,213.9,16.8,201.6,16.8z M195.7,246.4c0,3.1-2.5,5.6-5.6,5.6H33.9c-3.1,0-5.6-2.5-5.6-5.6v-196c0-3.1,2.5-5.6,5.6-5.6h20.5
	l11.9,12.7c2.1,2.2,6.3,4.1,9.4,4.1h72.6c3.1,0,7.3-1.8,9.4-4.1l11.9-12.7h20.5l0,0c3.1,0,5.6,2.5,5.6,5.6V246.4z"/>
<g>
</g>
<g>
</g>
<g>
</g>
<g>
</g>
<g>
</g>
<g>
</g>
</svg>
